<svg width="89" height="192" viewBox="0 0 89 192" fill="none" xmlns="http://www.w3.org/2000/svg">
<path d="M2.16626 84.1244C2.16641 76.1944 4.2199 68.3995 8.1268 61.4987C12.0337 54.5979 17.6609 48.8263 24.4605 44.7458C24.7928 44.5469 25.0678 44.2653 25.2588 43.9284C25.4498 43.5916 25.5502 43.2109 25.5502 42.8237V2H62.9645V42.8237C62.9645 43.6094 63.376 44.3389 64.0542 44.7411C70.8544 48.822 76.4821 54.5944 80.389 61.4961C84.2959 68.3978 86.3491 76.1936 86.3484 84.1244V179.718C86.3484 182.199 85.3629 184.578 83.6088 186.332C81.8547 188.086 79.4755 189.071 76.9948 189.071H11.5198C9.03911 189.071 6.65999 188.086 4.90586 186.332C3.15172 184.578 2.16626 182.199 2.16626 179.718V84.1244Z" stroke="#CDCDCD" stroke-width="4" stroke-linecap="round" stroke-linejoin="round"/>
<path d="M25.5502 30.0615H62.9645" stroke="#CDCDCD" stroke-width="4" stroke-linecap="round"/>
<path d="M86.3485 90.8584H44.2574V161.01H86.3485" stroke="#CDCDCD" stroke-width="4" stroke-linecap="round" stroke-linejoin="round"/>
<path d="M86.3483 170.364V81.5049" stroke="#CDCDCD" stroke-width="4" stroke-linecap="round" stroke-linejoin="round"/>
<path d="M25.5502 39.4142V20.707" stroke="#CDCDCD" stroke-width="4" stroke-linecap="round" stroke-linejoin="round"/>
<path d="M62.9646 39.4142V20.707" stroke="#CDCDCD" stroke-width="4" stroke-linecap="round" stroke-linejoin="round"/>
</svg>
