<svg width="188" height="195" viewBox="0 0 188 195" fill="none" xmlns="http://www.w3.org/2000/svg">
<path d="M109.618 13.2174L116.91 20.208M84.0744 37.6896L91.366 44.6802M62.1789 65.6521L69.4756 72.6477M54.8769 100.615L62.1789 107.606M149.751 2.73145L157.048 9.72208M142.454 44.6802L157.048 58.6615M116.91 69.1524L131.509 83.1337M87.7176 90.1243L102.316 104.111M62.1789 135.573C78.2999 151.018 117.509 138.495 149.751 107.606C181.993 76.7116 195.064 39.148 178.943 23.7083L62.1789 135.573Z" stroke="#CDCDCD" stroke-width="4" stroke-linecap="round" stroke-linejoin="round"/>
<path d="M62.1749 156.546C68.2207 150.754 68.2207 141.363 62.1749 135.571C56.1292 129.778 46.327 129.778 40.2812 135.571L11.0896 163.537C5.04387 169.329 5.04387 178.72 11.0896 184.512C17.1354 190.304 26.9376 190.304 32.9833 184.512L62.1749 156.546Z" stroke="#CDCDCD" stroke-width="4" stroke-linecap="round" stroke-linejoin="round"/>
</svg>
