<svg width="179" height="192" viewBox="0 0 179 192" fill="none" xmlns="http://www.w3.org/2000/svg">
<path d="M68.1616 84.8457L78.2602 171.68C78.718 175.937 77.5936 180.216 75.1316 183.586C72.6696 186.956 69.0691 189.145 65.1133 189.677C61.1575 190.209 57.1663 189.04 54.0079 186.426C50.8494 183.811 48.7792 179.962 48.2476 175.715L37.9095 86.8303" stroke="#CDCDCD" stroke-width="4" stroke-linecap="round" stroke-linejoin="round"/>
<path d="M41.1924 2.73145C30.7979 2.73145 20.8292 7.16957 13.4792 15.0695C6.12919 22.9694 2 33.6839 2 44.8561C2 56.0283 6.12919 66.7428 13.4792 74.6427C20.8292 82.5426 30.7979 86.9808 41.1924 86.9808C48.0641 86.9808 57.479 86.1617 68.1611 84.8464L122.173 75.3824L176.188 65.9184V23.7938L108.69 13.2626L41.1924 2.73145Z" stroke="#CDCDCD" stroke-width="4" stroke-linecap="round" stroke-linejoin="round"/>
<path d="M145.706 22.3877V67.3205" stroke="#CDCDCD" stroke-width="4" stroke-linecap="round" stroke-linejoin="round"/>
<path d="M176.189 65.9199L122.173 75.3842" stroke="#CDCDCD" stroke-width="4" stroke-linecap="round" stroke-linejoin="round"/>
<path d="M176.188 23.7898L108.69 13.2607" stroke="#CDCDCD" stroke-width="4" stroke-linecap="round" stroke-linejoin="round"/>
<path d="M54.2563 44.8561C54.2563 48.5799 52.8799 52.1512 50.4299 54.7843C47.9799 57.4174 44.657 58.8967 41.1922 58.8967C37.7274 58.8967 34.4044 57.4174 31.9544 54.7843C29.5044 52.1512 28.1281 48.5799 28.1281 44.8561C28.1281 41.1323 29.5044 37.561 31.9544 34.9278C34.4044 32.2947 37.7274 30.8154 41.1922 30.8154C44.657 30.8154 47.9799 32.2947 50.4299 34.9278C52.8799 37.561 54.2563 41.1323 54.2563 44.8561V44.8561Z" stroke="#CDCDCD" stroke-width="4" stroke-linecap="round" stroke-linejoin="round"/>
</svg>
