<svg width="119" height="191" viewBox="0 0 119 191" fill="none" xmlns="http://www.w3.org/2000/svg">
<path d="M103.622 22.4834H78.9919C74.5414 22.4992 74.7079 29.9302 78.9919 29.8865H103.622V33.6854H78.9919C74.5662 33.6417 74.7292 41.0687 78.9919 41.0885H103.622V44.9707H78.9919C74.5662 44.9707 74.7292 52.3937 78.9919 52.3739H103.622V56.0735H78.9919C74.6583 56.1092 74.7292 63.5401 78.9919 63.5639H103.622V67.2715H78.9919C74.6583 67.2556 74.6406 74.6746 78.9919 74.6746H103.622V78.3742H78.9919C74.6583 78.3901 74.6406 85.8171 78.9919 85.7814H103.622V89.5723H78.9919C74.6583 89.5286 74.6406 96.9476 78.9919 96.9754H103.622V100.667H78.9919C74.6583 100.663 74.7292 108.098 78.9919 108.074H103.622V180.157C103.636 191.14 118.529 190.942 118.571 180.157V11.4719C118.529 6.45444 114.851 0.111147 108.799 0.091299H78.9919C74.5414 0.0952685 74.7079 7.52621 78.9919 7.49446L103.622 7.58576V11.2774H78.9919C74.5484 11.2536 74.715 18.6806 78.9919 18.6845H103.622V22.4834ZM77.2981 150.278C77.2839 137.457 65.4207 123.666 51.2471 132.598V83.5584L42.0804 2.67943C41.8891 0.539855 40.2697 0.0357257 39.1819 0C38.0587 0.0357257 35.8086 0.539855 35.5641 2.67943L26.4434 83.5584V132.598C12.2699 123.666 0.78931 137.544 0.785767 150.179C0.78931 161.421 8.51389 170.654 18.9669 170.626C29.4978 170.654 37.0736 160.305 37.0736 150.179V99.238H40.617V150.179C40.617 161.516 48.4549 169.907 57.1646 170.439C57.0193 176.656 58.83 185.524 62.2387 189.041C66.2357 193.169 70.9944 187.889 69.042 183.59C67.1569 179.589 65.3073 177.219 66.8097 168.482C73.0886 165.227 77.2839 158.376 77.2981 150.278ZM19.3708 160.365C16.9815 160.365 14.69 159.301 13.0005 157.409C11.3109 155.516 10.3618 152.949 10.3618 150.272C10.3618 147.595 11.3109 145.028 13.0005 143.136C14.69 141.243 16.9815 140.18 19.3708 140.18C24.282 140.211 28.2824 144.725 28.3179 150.278C28.3078 152.939 27.3637 155.488 25.6896 157.376C24.0155 159.263 21.7458 160.337 19.3708 160.365ZM49.7412 150.278C49.7494 147.615 50.6931 145.063 52.3681 143.173C54.043 141.283 56.3147 140.208 58.6918 140.18C61.0697 140.204 63.3431 141.278 65.0183 143.169C66.6935 145.059 67.6352 147.614 67.6388 150.278C67.6352 152.941 66.6932 155.495 65.0177 157.383C63.3422 159.272 61.0687 160.344 58.6918 160.365C56.3154 160.341 54.0432 159.268 52.3677 157.38C50.6923 155.492 49.7486 152.94 49.7412 150.278Z" fill="#CDCDCD"/>
</svg>
